<mxfile host="app.diagrams.net" modified="2024-05-09T13:57:43.907Z" agent="Mozilla/5.0 (Windows NT 10.0; Win64; x64) AppleWebKit/537.36 (KHTML, like Gecko) Chrome/121.0.0.0 Safari/537.36 OPR/107.0.0.0" etag="NY4FdVoLK2J0OF2vEMLI" version="24.3.1" type="device">
  <diagram id="C5RBs43oDa-KdzZeNtuy" name="Page-1">
    <mxGraphModel dx="1161" dy="638" grid="1" gridSize="10" guides="1" tooltips="1" connect="1" arrows="1" fold="1" page="1" pageScale="1" pageWidth="827" pageHeight="1169" math="0" shadow="0">
      <root>
        <mxCell id="WIyWlLk6GJQsqaUBKTNV-0" />
        <mxCell id="WIyWlLk6GJQsqaUBKTNV-1" parent="WIyWlLk6GJQsqaUBKTNV-0" />
        <mxCell id="WIyWlLk6GJQsqaUBKTNV-3" value="Gathering Dataset&lt;div&gt;(Nsynth)&lt;/div&gt;" style="rounded=1;whiteSpace=wrap;html=1;fontSize=12;glass=0;strokeWidth=1;shadow=0;" parent="WIyWlLk6GJQsqaUBKTNV-1" vertex="1">
          <mxGeometry x="240" y="70" width="240" height="50" as="geometry" />
        </mxCell>
        <mxCell id="7aXix6pyU5FLzZMUOEfd-0" value="Loudness&lt;div&gt;(Root Mean Squared)&lt;/div&gt;" style="rounded=1;whiteSpace=wrap;html=1;fontSize=12;glass=0;strokeWidth=1;shadow=0;arcSize=7;" vertex="1" parent="WIyWlLk6GJQsqaUBKTNV-1">
          <mxGeometry x="90" y="170" width="150" height="120" as="geometry" />
        </mxCell>
        <mxCell id="7aXix6pyU5FLzZMUOEfd-2" value="Pitch / Fundamental Frequency&lt;div&gt;(CREPE)&lt;/div&gt;" style="rounded=1;whiteSpace=wrap;html=1;fontSize=12;glass=0;strokeWidth=1;shadow=0;arcSize=7;" vertex="1" parent="WIyWlLk6GJQsqaUBKTNV-1">
          <mxGeometry x="285" y="170" width="150" height="120" as="geometry" />
        </mxCell>
        <mxCell id="7aXix6pyU5FLzZMUOEfd-3" value="z(t)&lt;div&gt;MFCC&lt;/div&gt;" style="rounded=1;whiteSpace=wrap;html=1;fontSize=12;glass=0;strokeWidth=1;shadow=0;arcSize=7;" vertex="1" parent="WIyWlLk6GJQsqaUBKTNV-1">
          <mxGeometry x="480" y="170" width="150" height="120" as="geometry" />
        </mxCell>
        <mxCell id="7aXix6pyU5FLzZMUOEfd-4" value="" style="endArrow=classic;html=1;rounded=0;exitX=0.5;exitY=1;exitDx=0;exitDy=0;entryX=0.5;entryY=0;entryDx=0;entryDy=0;" edge="1" parent="WIyWlLk6GJQsqaUBKTNV-1" source="WIyWlLk6GJQsqaUBKTNV-3" target="7aXix6pyU5FLzZMUOEfd-2">
          <mxGeometry width="50" height="50" relative="1" as="geometry">
            <mxPoint x="320" y="200" as="sourcePoint" />
            <mxPoint x="370" y="150" as="targetPoint" />
          </mxGeometry>
        </mxCell>
        <mxCell id="7aXix6pyU5FLzZMUOEfd-5" value="" style="endArrow=classic;html=1;rounded=0;exitX=0.5;exitY=1;exitDx=0;exitDy=0;entryX=0.5;entryY=0;entryDx=0;entryDy=0;edgeStyle=elbowEdgeStyle;elbow=vertical;" edge="1" parent="WIyWlLk6GJQsqaUBKTNV-1" target="7aXix6pyU5FLzZMUOEfd-0">
          <mxGeometry width="50" height="50" relative="1" as="geometry">
            <mxPoint x="359.71" y="120" as="sourcePoint" />
            <mxPoint x="359.71" y="170" as="targetPoint" />
          </mxGeometry>
        </mxCell>
        <mxCell id="7aXix6pyU5FLzZMUOEfd-7" value="" style="endArrow=classic;html=1;rounded=0;entryX=0.5;entryY=0;entryDx=0;entryDy=0;edgeStyle=elbowEdgeStyle;elbow=vertical;" edge="1" parent="WIyWlLk6GJQsqaUBKTNV-1" target="7aXix6pyU5FLzZMUOEfd-3">
          <mxGeometry width="50" height="50" relative="1" as="geometry">
            <mxPoint x="360" y="120" as="sourcePoint" />
            <mxPoint x="175" y="180" as="targetPoint" />
          </mxGeometry>
        </mxCell>
        <mxCell id="7aXix6pyU5FLzZMUOEfd-8" value="" style="rounded=0;whiteSpace=wrap;html=1;fillColor=none;dashed=1;" vertex="1" parent="WIyWlLk6GJQsqaUBKTNV-1">
          <mxGeometry x="79" y="130" width="561" height="180" as="geometry" />
        </mxCell>
        <mxCell id="7aXix6pyU5FLzZMUOEfd-30" style="edgeStyle=orthogonalEdgeStyle;rounded=0;orthogonalLoop=1;jettySize=auto;html=1;entryX=0.5;entryY=0;entryDx=0;entryDy=0;" edge="1" parent="WIyWlLk6GJQsqaUBKTNV-1" source="7aXix6pyU5FLzZMUOEfd-9" target="7aXix6pyU5FLzZMUOEfd-26">
          <mxGeometry relative="1" as="geometry" />
        </mxCell>
        <mxCell id="7aXix6pyU5FLzZMUOEfd-9" value="DDSP&lt;div&gt;(Base)&lt;/div&gt;" style="rounded=1;whiteSpace=wrap;html=1;fontSize=12;glass=0;strokeWidth=1;shadow=0;arcSize=7;" vertex="1" parent="WIyWlLk6GJQsqaUBKTNV-1">
          <mxGeometry x="90" y="450" width="150" height="60" as="geometry" />
        </mxCell>
        <mxCell id="7aXix6pyU5FLzZMUOEfd-29" style="edgeStyle=orthogonalEdgeStyle;rounded=0;orthogonalLoop=1;jettySize=auto;html=1;entryX=0.5;entryY=0;entryDx=0;entryDy=0;" edge="1" parent="WIyWlLk6GJQsqaUBKTNV-1" source="7aXix6pyU5FLzZMUOEfd-10" target="7aXix6pyU5FLzZMUOEfd-24">
          <mxGeometry relative="1" as="geometry" />
        </mxCell>
        <mxCell id="7aXix6pyU5FLzZMUOEfd-10" value="DWTS" style="rounded=1;whiteSpace=wrap;html=1;fontSize=12;glass=0;strokeWidth=1;shadow=0;arcSize=7;" vertex="1" parent="WIyWlLk6GJQsqaUBKTNV-1">
          <mxGeometry x="285" y="450" width="150" height="60" as="geometry" />
        </mxCell>
        <mxCell id="7aXix6pyU5FLzZMUOEfd-31" style="edgeStyle=orthogonalEdgeStyle;rounded=0;orthogonalLoop=1;jettySize=auto;html=1;entryX=0.5;entryY=0;entryDx=0;entryDy=0;" edge="1" parent="WIyWlLk6GJQsqaUBKTNV-1" source="7aXix6pyU5FLzZMUOEfd-11" target="7aXix6pyU5FLzZMUOEfd-25">
          <mxGeometry relative="1" as="geometry" />
        </mxCell>
        <mxCell id="7aXix6pyU5FLzZMUOEfd-11" value="NIC" style="rounded=1;whiteSpace=wrap;html=1;fontSize=12;glass=0;strokeWidth=1;shadow=0;arcSize=7;" vertex="1" parent="WIyWlLk6GJQsqaUBKTNV-1">
          <mxGeometry x="590" y="450" width="150" height="60" as="geometry" />
        </mxCell>
        <mxCell id="7aXix6pyU5FLzZMUOEfd-12" value="" style="endArrow=classic;html=1;rounded=0;edgeStyle=elbowEdgeStyle;elbow=vertical;exitX=0.5;exitY=1;exitDx=0;exitDy=0;" edge="1" parent="WIyWlLk6GJQsqaUBKTNV-1" source="7aXix6pyU5FLzZMUOEfd-8" target="7aXix6pyU5FLzZMUOEfd-10">
          <mxGeometry width="50" height="50" relative="1" as="geometry">
            <mxPoint x="370" y="330" as="sourcePoint" />
            <mxPoint x="565" y="370" as="targetPoint" />
          </mxGeometry>
        </mxCell>
        <mxCell id="7aXix6pyU5FLzZMUOEfd-13" value="" style="endArrow=classic;html=1;rounded=0;edgeStyle=elbowEdgeStyle;elbow=vertical;exitX=0.5;exitY=1;exitDx=0;exitDy=0;entryX=0.5;entryY=0;entryDx=0;entryDy=0;" edge="1" parent="WIyWlLk6GJQsqaUBKTNV-1" target="7aXix6pyU5FLzZMUOEfd-9">
          <mxGeometry width="50" height="50" relative="1" as="geometry">
            <mxPoint x="359.3" y="310" as="sourcePoint" />
            <mxPoint x="359.3" y="370" as="targetPoint" />
            <Array as="points">
              <mxPoint x="262" y="340" />
            </Array>
          </mxGeometry>
        </mxCell>
        <mxCell id="7aXix6pyU5FLzZMUOEfd-14" value="" style="endArrow=classic;html=1;rounded=0;edgeStyle=elbowEdgeStyle;elbow=vertical;entryX=0.5;entryY=0;entryDx=0;entryDy=0;" edge="1" parent="WIyWlLk6GJQsqaUBKTNV-1" target="7aXix6pyU5FLzZMUOEfd-11">
          <mxGeometry width="50" height="50" relative="1" as="geometry">
            <mxPoint x="360" y="310" as="sourcePoint" />
            <mxPoint x="175" y="380" as="targetPoint" />
            <Array as="points">
              <mxPoint x="458" y="340" />
            </Array>
          </mxGeometry>
        </mxCell>
        <mxCell id="7aXix6pyU5FLzZMUOEfd-16" style="edgeStyle=orthogonalEdgeStyle;rounded=0;orthogonalLoop=1;jettySize=auto;html=1;" edge="1" parent="WIyWlLk6GJQsqaUBKTNV-1" source="7aXix6pyU5FLzZMUOEfd-15">
          <mxGeometry relative="1" as="geometry">
            <mxPoint x="360" y="450" as="targetPoint" />
          </mxGeometry>
        </mxCell>
        <mxCell id="7aXix6pyU5FLzZMUOEfd-15" value="Wavetable&lt;div&gt;Dictionary&lt;/div&gt;" style="shape=parallelogram;perimeter=parallelogramPerimeter;whiteSpace=wrap;html=1;fixedSize=1;" vertex="1" parent="WIyWlLk6GJQsqaUBKTNV-1">
          <mxGeometry x="390" y="370" width="120" height="60" as="geometry" />
        </mxCell>
        <mxCell id="7aXix6pyU5FLzZMUOEfd-20" style="edgeStyle=orthogonalEdgeStyle;rounded=0;orthogonalLoop=1;jettySize=auto;html=1;entryX=0.5;entryY=0;entryDx=0;entryDy=0;" edge="1" parent="WIyWlLk6GJQsqaUBKTNV-1" source="7aXix6pyU5FLzZMUOEfd-17" target="7aXix6pyU5FLzZMUOEfd-11">
          <mxGeometry relative="1" as="geometry">
            <Array as="points">
              <mxPoint x="665" y="400" />
            </Array>
          </mxGeometry>
        </mxCell>
        <mxCell id="7aXix6pyU5FLzZMUOEfd-17" value="F0&lt;div&gt;Confidence&lt;/div&gt;" style="shape=parallelogram;perimeter=parallelogramPerimeter;whiteSpace=wrap;html=1;fixedSize=1;" vertex="1" parent="WIyWlLk6GJQsqaUBKTNV-1">
          <mxGeometry x="680" y="370" width="120" height="60" as="geometry" />
        </mxCell>
        <mxCell id="7aXix6pyU5FLzZMUOEfd-22" style="edgeStyle=orthogonalEdgeStyle;rounded=0;orthogonalLoop=1;jettySize=auto;html=1;entryX=0.5;entryY=0;entryDx=0;entryDy=0;" edge="1" parent="WIyWlLk6GJQsqaUBKTNV-1" source="7aXix6pyU5FLzZMUOEfd-18" target="7aXix6pyU5FLzZMUOEfd-11">
          <mxGeometry relative="1" as="geometry">
            <Array as="points">
              <mxPoint x="665" y="400" />
            </Array>
          </mxGeometry>
        </mxCell>
        <mxCell id="7aXix6pyU5FLzZMUOEfd-18" value="Two-Part&lt;div&gt;Reverb&lt;/div&gt;" style="shape=parallelogram;perimeter=parallelogramPerimeter;whiteSpace=wrap;html=1;fixedSize=1;" vertex="1" parent="WIyWlLk6GJQsqaUBKTNV-1">
          <mxGeometry x="530" y="370" width="120" height="60" as="geometry" />
        </mxCell>
        <mxCell id="7aXix6pyU5FLzZMUOEfd-38" style="edgeStyle=orthogonalEdgeStyle;rounded=0;orthogonalLoop=1;jettySize=auto;html=1;entryX=0.5;entryY=0;entryDx=0;entryDy=0;" edge="1" parent="WIyWlLk6GJQsqaUBKTNV-1" source="7aXix6pyU5FLzZMUOEfd-24" target="7aXix6pyU5FLzZMUOEfd-36">
          <mxGeometry relative="1" as="geometry" />
        </mxCell>
        <mxCell id="7aXix6pyU5FLzZMUOEfd-24" value="Generated&lt;div&gt;Audio&lt;/div&gt;" style="shape=parallelogram;perimeter=parallelogramPerimeter;whiteSpace=wrap;html=1;fixedSize=1;" vertex="1" parent="WIyWlLk6GJQsqaUBKTNV-1">
          <mxGeometry x="300" y="550" width="120" height="60" as="geometry" />
        </mxCell>
        <mxCell id="7aXix6pyU5FLzZMUOEfd-37" style="edgeStyle=orthogonalEdgeStyle;rounded=0;orthogonalLoop=1;jettySize=auto;html=1;entryX=0.5;entryY=0;entryDx=0;entryDy=0;" edge="1" parent="WIyWlLk6GJQsqaUBKTNV-1" source="7aXix6pyU5FLzZMUOEfd-25" target="7aXix6pyU5FLzZMUOEfd-36">
          <mxGeometry relative="1" as="geometry">
            <Array as="points">
              <mxPoint x="665" y="650" />
              <mxPoint x="425" y="650" />
            </Array>
          </mxGeometry>
        </mxCell>
        <mxCell id="7aXix6pyU5FLzZMUOEfd-25" value="Generated&lt;div&gt;Audio&lt;/div&gt;" style="shape=parallelogram;perimeter=parallelogramPerimeter;whiteSpace=wrap;html=1;fixedSize=1;" vertex="1" parent="WIyWlLk6GJQsqaUBKTNV-1">
          <mxGeometry x="605" y="550" width="120" height="60" as="geometry" />
        </mxCell>
        <mxCell id="7aXix6pyU5FLzZMUOEfd-39" style="edgeStyle=orthogonalEdgeStyle;rounded=0;orthogonalLoop=1;jettySize=auto;html=1;entryX=0.5;entryY=0;entryDx=0;entryDy=0;" edge="1" parent="WIyWlLk6GJQsqaUBKTNV-1" source="7aXix6pyU5FLzZMUOEfd-26" target="7aXix6pyU5FLzZMUOEfd-36">
          <mxGeometry relative="1" as="geometry">
            <Array as="points">
              <mxPoint x="165" y="650" />
              <mxPoint x="425" y="650" />
            </Array>
          </mxGeometry>
        </mxCell>
        <mxCell id="7aXix6pyU5FLzZMUOEfd-26" value="Generated&lt;div&gt;Audio&lt;/div&gt;" style="shape=parallelogram;perimeter=parallelogramPerimeter;whiteSpace=wrap;html=1;fixedSize=1;" vertex="1" parent="WIyWlLk6GJQsqaUBKTNV-1">
          <mxGeometry x="105" y="550" width="120" height="60" as="geometry" />
        </mxCell>
        <mxCell id="7aXix6pyU5FLzZMUOEfd-32" value="MOS" style="rounded=1;whiteSpace=wrap;html=1;fontSize=12;glass=0;strokeWidth=1;shadow=0;arcSize=7;" vertex="1" parent="WIyWlLk6GJQsqaUBKTNV-1">
          <mxGeometry x="90" y="800" width="90" height="60" as="geometry" />
        </mxCell>
        <mxCell id="7aXix6pyU5FLzZMUOEfd-33" value="MUSHRA" style="rounded=1;whiteSpace=wrap;html=1;fontSize=12;glass=0;strokeWidth=1;shadow=0;arcSize=7;" vertex="1" parent="WIyWlLk6GJQsqaUBKTNV-1">
          <mxGeometry x="225" y="800" width="95" height="60" as="geometry" />
        </mxCell>
        <mxCell id="7aXix6pyU5FLzZMUOEfd-34" value="NDB/K" style="rounded=1;whiteSpace=wrap;html=1;fontSize=12;glass=0;strokeWidth=1;shadow=0;arcSize=7;" vertex="1" parent="WIyWlLk6GJQsqaUBKTNV-1">
          <mxGeometry x="520" y="800" width="100" height="60" as="geometry" />
        </mxCell>
        <mxCell id="7aXix6pyU5FLzZMUOEfd-35" value="FAD" style="rounded=1;whiteSpace=wrap;html=1;fontSize=12;glass=0;strokeWidth=1;shadow=0;arcSize=7;" vertex="1" parent="WIyWlLk6GJQsqaUBKTNV-1">
          <mxGeometry x="665" y="800" width="95" height="60" as="geometry" />
        </mxCell>
        <mxCell id="7aXix6pyU5FLzZMUOEfd-40" style="edgeStyle=orthogonalEdgeStyle;rounded=0;orthogonalLoop=1;jettySize=auto;html=1;entryX=1;entryY=0.5;entryDx=0;entryDy=0;" edge="1" parent="WIyWlLk6GJQsqaUBKTNV-1" source="7aXix6pyU5FLzZMUOEfd-36" target="7aXix6pyU5FLzZMUOEfd-32">
          <mxGeometry relative="1" as="geometry">
            <Array as="points">
              <mxPoint x="200" y="720" />
              <mxPoint x="200" y="830" />
            </Array>
          </mxGeometry>
        </mxCell>
        <mxCell id="7aXix6pyU5FLzZMUOEfd-41" style="edgeStyle=orthogonalEdgeStyle;rounded=0;orthogonalLoop=1;jettySize=auto;html=1;entryX=0;entryY=0.5;entryDx=0;entryDy=0;" edge="1" parent="WIyWlLk6GJQsqaUBKTNV-1" source="7aXix6pyU5FLzZMUOEfd-36" target="7aXix6pyU5FLzZMUOEfd-33">
          <mxGeometry relative="1" as="geometry">
            <Array as="points">
              <mxPoint x="200" y="720" />
              <mxPoint x="200" y="830" />
            </Array>
          </mxGeometry>
        </mxCell>
        <mxCell id="7aXix6pyU5FLzZMUOEfd-43" style="edgeStyle=orthogonalEdgeStyle;rounded=0;orthogonalLoop=1;jettySize=auto;html=1;entryX=1;entryY=0.5;entryDx=0;entryDy=0;" edge="1" parent="WIyWlLk6GJQsqaUBKTNV-1" source="7aXix6pyU5FLzZMUOEfd-36" target="7aXix6pyU5FLzZMUOEfd-34">
          <mxGeometry relative="1" as="geometry">
            <Array as="points">
              <mxPoint x="640" y="720" />
              <mxPoint x="640" y="830" />
            </Array>
          </mxGeometry>
        </mxCell>
        <mxCell id="7aXix6pyU5FLzZMUOEfd-44" style="edgeStyle=orthogonalEdgeStyle;rounded=0;orthogonalLoop=1;jettySize=auto;html=1;entryX=0;entryY=0.5;entryDx=0;entryDy=0;" edge="1" parent="WIyWlLk6GJQsqaUBKTNV-1" source="7aXix6pyU5FLzZMUOEfd-36" target="7aXix6pyU5FLzZMUOEfd-35">
          <mxGeometry relative="1" as="geometry">
            <Array as="points">
              <mxPoint x="640" y="720" />
              <mxPoint x="640" y="830" />
            </Array>
          </mxGeometry>
        </mxCell>
        <mxCell id="7aXix6pyU5FLzZMUOEfd-36" value="Evaluation" style="rounded=1;whiteSpace=wrap;html=1;fontSize=12;glass=0;strokeWidth=1;shadow=0;arcSize=7;" vertex="1" parent="WIyWlLk6GJQsqaUBKTNV-1">
          <mxGeometry x="350" y="690" width="150" height="60" as="geometry" />
        </mxCell>
        <mxCell id="7aXix6pyU5FLzZMUOEfd-45" value="" style="rounded=0;whiteSpace=wrap;html=1;fillColor=none;dashed=1;" vertex="1" parent="WIyWlLk6GJQsqaUBKTNV-1">
          <mxGeometry x="69" y="780" width="271" height="100" as="geometry" />
        </mxCell>
        <mxCell id="7aXix6pyU5FLzZMUOEfd-46" value="" style="rounded=0;whiteSpace=wrap;html=1;fillColor=none;dashed=1;" vertex="1" parent="WIyWlLk6GJQsqaUBKTNV-1">
          <mxGeometry x="500" y="780" width="281" height="100" as="geometry" />
        </mxCell>
        <mxCell id="7aXix6pyU5FLzZMUOEfd-53" style="edgeStyle=orthogonalEdgeStyle;rounded=0;orthogonalLoop=1;jettySize=auto;html=1;entryX=0.5;entryY=0;entryDx=0;entryDy=0;" edge="1" parent="WIyWlLk6GJQsqaUBKTNV-1" source="7aXix6pyU5FLzZMUOEfd-47" target="7aXix6pyU5FLzZMUOEfd-51">
          <mxGeometry relative="1" as="geometry">
            <Array as="points">
              <mxPoint x="205" y="940" />
              <mxPoint x="425" y="940" />
            </Array>
          </mxGeometry>
        </mxCell>
        <mxCell id="7aXix6pyU5FLzZMUOEfd-47" value="Subjective Evaluation" style="text;html=1;align=center;verticalAlign=middle;whiteSpace=wrap;rounded=0;" vertex="1" parent="WIyWlLk6GJQsqaUBKTNV-1">
          <mxGeometry x="130" y="880" width="150" height="30" as="geometry" />
        </mxCell>
        <mxCell id="7aXix6pyU5FLzZMUOEfd-52" style="edgeStyle=orthogonalEdgeStyle;rounded=0;orthogonalLoop=1;jettySize=auto;html=1;entryX=0.5;entryY=0;entryDx=0;entryDy=0;" edge="1" parent="WIyWlLk6GJQsqaUBKTNV-1" source="7aXix6pyU5FLzZMUOEfd-50" target="7aXix6pyU5FLzZMUOEfd-51">
          <mxGeometry relative="1" as="geometry">
            <Array as="points">
              <mxPoint x="635" y="940" />
              <mxPoint x="425" y="940" />
            </Array>
          </mxGeometry>
        </mxCell>
        <mxCell id="7aXix6pyU5FLzZMUOEfd-50" value="Objective Evaluation" style="text;html=1;align=center;verticalAlign=middle;whiteSpace=wrap;rounded=0;" vertex="1" parent="WIyWlLk6GJQsqaUBKTNV-1">
          <mxGeometry x="560" y="880" width="150" height="30" as="geometry" />
        </mxCell>
        <mxCell id="7aXix6pyU5FLzZMUOEfd-51" value="Comparative Analysis" style="rounded=1;whiteSpace=wrap;html=1;fontSize=12;glass=0;strokeWidth=1;shadow=0;arcSize=7;" vertex="1" parent="WIyWlLk6GJQsqaUBKTNV-1">
          <mxGeometry x="330" y="980" width="190" height="60" as="geometry" />
        </mxCell>
      </root>
    </mxGraphModel>
  </diagram>
</mxfile>
